<?xml version="1.0" standalone="no"?>
<!DOCTYPE svg PUBLIC "-//W3C//DTD SVG 20010904//EN"
 "http://www.w3.org/TR/2001/REC-SVG-20010904/DTD/svg10.dtd">
<svg version="1.0" xmlns="http://www.w3.org/2000/svg"
 width="658.000000pt" height="658.000000pt" viewBox="0 0 658.000000 658.000000"
 preserveAspectRatio="xMidYMid meet">
<metadata>
Created by potrace 1.14, written by Peter Selinger 2001-2017
</metadata>
<g transform="translate(0.000000,658.000000) scale(0.100000,-0.100000)"
fill="#000000" stroke="none">
<path d="M1290 3620 l0 -410 410 0 410 0 0 60 c0 33 0 188 0 345 0 157 0 314
0 350 l0 65 -410 0 -410 0 0 -410z"/>
<path d="M2190 3617 c0 -361 2 -414 15 -414 13 0 15 53 15 414 0 360 -2 413
-15 413 -13 0 -15 -53 -15 -413z"/>
<path d="M2326 3791 c-8 -13 -4 -416 5 -421 4 -3 26 -4 48 -2 l40 4 3 86 3 86
73 1 c40 1 75 -2 78 -7 3 -4 5 -44 5 -88 l0 -80 50 0 49 0 -2 213 -3 212 -45
0 -45 0 -3 -82 -3 -83 -79 0 -79 0 -3 82 -3 82 -43 2 c-23 1 -44 -2 -46 -5z"/>
<path d="M2802 3783 c-51 -25 -67 -58 -63 -130 2 -40 48 -81 126 -110 76 -28
94 -47 71 -79 -17 -22 -77 -21 -125 4 l-38 20 -21 -36 c-24 -43 -19 -50 51
-77 34 -13 62 -16 101 -12 94 9 132 41 140 117 7 73 -25 113 -118 144 -26 9
-57 21 -67 27 -21 11 -26 47 -6 54 42 15 74 13 106 -6 l35 -21 23 27 c32 36
29 48 -16 73 -48 27 -149 30 -199 5z"/>
<path d="M3109 3786 c-6 -48 -3 -409 3 -412 7 -4 192 -7 261 -5 13 1 17 10 17
41 0 45 5 43 -122 42 -35 -1 -58 4 -60 11 -3 7 -4 81 -3 165 0 95 -3 156 -10
160 -18 11 -85 10 -86 -2z"/>
<path d="M3423 3784 c-10 -27 3 -319 15 -344 37 -72 166 -102 252 -58 71 36
82 70 85 247 1 80 0 151 -2 157 -2 6 -25 10 -50 9 l-46 -1 -1 -151 c-2 -175
-9 -193 -78 -193 -48 0 -78 28 -79 73 0 17 -1 86 -2 152 l-2 120 -43 1 c-27 0
-46 -4 -49 -12z"/>
<path d="M3890 3747 c0 -57 -3 -54 53 -48 4 1 7 5 7 10 0 4 -10 6 -23 4 -22
-4 -23 -2 -20 36 1 22 -2 43 -7 46 -6 4 -10 -15 -10 -48z"/>
<path d="M4459 3788 c-7 -72 17 -110 55 -84 22 14 33 81 15 92 -5 3 -9 -13 -9
-35 0 -22 -5 -43 -10 -46 -18 -11 -38 14 -35 45 1 17 -1 33 -6 36 -5 3 -10 -1
-10 -8z"/>
<path d="M4987 3777 c-13 -34 21 -104 38 -77 3 5 1 10 -4 10 -6 0 -11 11 -11
25 0 14 6 25 13 25 18 0 39 -48 32 -71 -4 -11 -2 -19 3 -19 13 0 47 88 38 97
-4 4 -9 -3 -13 -15 -7 -27 -19 -28 -26 -2 -3 12 -14 20 -26 20 -12 0 -21 5
-21 10 0 15 -17 12 -23 -3z"/>
<path d="M3964 3741 c4 -39 12 -48 38 -46 18 1 22 8 23 34 1 42 -11 49 -19 11
-7 -39 -26 -39 -26 0 0 17 -4 30 -10 30 -5 0 -8 -13 -6 -29z"/>
<path d="M4052 3758 c-7 -7 -12 -19 -12 -28 0 -20 33 -40 49 -30 9 5 7 9 -8
13 -35 9 -25 44 12 38 4 0 7 4 7 9 0 14 -33 13 -48 -2z"/>
<path d="M4122 3749 c-11 -18 -11 -24 3 -39 15 -17 55 -17 55 0 0 5 -9 6 -20
3 -11 -3 -20 0 -20 6 0 6 9 11 20 11 24 0 27 25 4 34 -24 9 -28 8 -42 -15z"/>
<path d="M4198 3753 c-2 -10 -1 -29 3 -43 6 -23 10 -18 13 16 1 6 7 19 15 28
12 14 11 16 -7 16 -11 0 -22 -8 -24 -17z"/>
<path d="M4250 3734 c0 -18 5 -36 10 -39 6 -4 10 6 10 24 0 16 5 33 10 36 9 6
12 1 14 -34 1 -8 6 -16 13 -18 6 -2 10 4 8 14 -2 10 -4 26 -4 35 -1 12 -9 16
-31 16 -27 -1 -30 -4 -30 -34z"/>
<path d="M4340 3755 c-14 -16 -5 -51 14 -58 8 -3 22 1 33 8 17 13 17 14 -3 9
-12 -3 -25 -1 -28 5 -5 7 3 11 18 11 28 0 33 9 14 28 -16 16 -33 15 -48 -3z
m37 -11 c-3 -3 -12 -4 -19 -1 -8 3 -5 6 6 6 11 1 17 -2 13 -5z"/>
<path d="M4559 3766 c-9 -9 3 -76 12 -71 4 3 6 11 3 18 -2 7 2 21 10 32 14 18
16 18 17 3 1 -10 3 -22 4 -28 1 -5 3 -15 4 -21 0 -5 5 -8 10 -5 5 3 6 20 2 38
-5 26 -12 34 -32 36 -13 2 -27 1 -30 -2z"/>
<path d="M4638 3763 c-2 -5 -1 -24 3 -43 7 -37 9 -35 15 18 3 28 -9 45 -18 25z"/>
<path d="M4670 3766 c0 -2 7 -21 16 -42 l16 -39 19 35 c20 39 23 50 11 50 -5
0 -14 -10 -20 -22 l-11 -23 -7 23 c-5 18 -24 32 -24 18z"/>
<path d="M4760 3755 c-26 -31 16 -76 51 -54 10 6 7 9 -13 9 -16 0 -28 5 -28
10 0 6 11 10 25 10 27 0 32 9 13 28 -16 16 -33 15 -48 -3z m30 -5 c0 -5 -5
-10 -11 -10 -5 0 -7 5 -4 10 3 6 8 10 11 10 2 0 4 -4 4 -10z"/>
<path d="M4834 3734 c1 -42 16 -57 16 -16 0 42 12 46 45 18 l28 -24 -24 -4
c-20 -3 -21 -4 -7 -10 11 -4 24 -1 34 9 15 15 14 18 -8 35 -15 12 -17 16 -5
12 9 -3 17 -1 17 4 0 6 -21 10 -48 9 -48 -1 -49 -1 -48 -33z"/>
<path d="M4959 3765 c-11 -18 -9 -79 2 -68 6 6 9 26 7 44 -2 19 -6 30 -9 24z"/>
<path d="M3984 3618 c-4 -7 -7 -28 -5 -48 2 -41 21 -68 21 -30 -1 14 1 37 4
52 5 30 -8 46 -20 26z"/>
<path d="M4087 3598 c-8 -18 -18 -43 -22 -55 -6 -23 -6 -23 23 -6 28 16 31 16
46 0 24 -23 27 -21 16 8 -13 33 -40 85 -44 85 -2 0 -10 -15 -19 -32z m28 -29
c-10 -15 -25 -10 -19 6 4 8 10 12 15 9 5 -3 7 -10 4 -15z"/>
<path d="M4347 3623 c-10 -9 -9 -91 1 -97 5 -3 9 20 10 50 1 56 0 59 -11 47z"/>
<path d="M4540 3610 c0 -12 -4 -19 -9 -16 -17 11 -41 -6 -41 -29 0 -29 20 -46
46 -39 17 4 21 14 21 50 1 24 -3 47 -8 50 -5 3 -9 -4 -9 -16z m-2 -47 c-5 -25
-28 -28 -28 -4 0 12 6 21 16 21 9 0 14 -7 12 -17z"/>
<path d="M4631 3614 c-24 -18 -20 -31 16 -45 28 -10 21 -33 -9 -26 -12 4 -18
1 -15 -6 5 -15 48 -11 58 5 10 16 0 35 -22 41 -10 3 -19 11 -19 17 0 7 8 10
20 7 22 -6 28 8 6 16 -7 3 -23 -1 -35 -9z"/>
<path d="M3903 3592 c-11 -7 -17 -26 -14 -48 2 -19 39 -23 54 -5 19 21 4 61
-23 61 -3 0 -10 -4 -17 -8z m33 -23 c3 -6 1 -16 -5 -22 -9 -9 -14 -8 -21 3 -9
15 -4 30 10 30 5 0 12 -5 16 -11z"/>
<path d="M4169 3583 c-2 -18 -2 -50 0 -70 2 -16 3 -16 16 1 8 11 18 17 21 13
4 -4 13 2 21 13 19 28 1 60 -32 58 -14 -1 -25 -8 -26 -15z m42 -36 c-17 -17
-34 12 -19 31 10 11 13 10 21 -3 6 -11 5 -21 -2 -28z"/>
<path d="M4253 3549 c1 -27 5 -49 9 -49 4 0 8 7 8 15 0 8 3 14 8 14 19 -3 32
3 41 19 13 25 0 42 -37 47 l-31 4 2 -50z m50 17 c7 -16 -1 -26 -20 -26 -7 0
-13 9 -13 20 0 23 25 27 33 6z"/>
<path d="M4379 3598 c-8 -22 -8 -68 0 -68 6 0 11 16 11 35 0 19 -2 35 -5 35
-3 0 -5 -1 -6 -2z"/>
<path d="M4422 3588 c-29 -29 1 -79 35 -59 16 9 16 10 -4 11 -13 0 -23 5 -23
11 0 6 7 8 16 5 24 -9 35 3 24 25 -12 22 -30 25 -48 7z m33 -8 c3 -5 -1 -10
-10 -10 -9 0 -13 5 -10 10 3 6 8 10 10 10 2 0 7 -4 10 -10z"/>
<path d="M4713 3593 c-18 -7 -16 -38 2 -57 9 -8 23 -12 32 -9 14 5 13 8 -6 15
-27 10 -25 45 3 40 11 -2 15 1 11 7 -6 11 -21 13 -42 4z"/>
<path d="M4779 3598 c-8 -22 -7 -68 1 -73 6 -4 10 9 10 34 0 23 -2 41 -5 41
-3 0 -5 -1 -6 -2z"/>
<path d="M4822 3588 c-16 -16 -15 -45 1 -55 18 -11 36 -12 43 -2 3 5 -4 9 -15
9 -12 0 -21 5 -21 11 0 5 8 9 18 8 30 -3 33 0 22 21 -12 23 -30 26 -48 8z m28
-8 c0 -5 -5 -10 -11 -10 -5 0 -7 5 -4 10 3 6 8 10 11 10 2 0 4 -4 4 -10z"/>
<path d="M4890 3556 c0 -43 16 -40 22 4 4 30 23 24 22 -7 0 -13 6 -23 13 -23
8 0 11 9 9 23 -3 12 -5 27 -5 34 -1 6 -14 11 -31 11 -28 -1 -30 -3 -30 -42z"/>
<path d="M4980 3585 c-6 -8 -10 -22 -8 -31 4 -20 45 -38 53 -24 4 6 -3 10 -14
10 -14 0 -21 6 -21 20 0 18 10 25 33 21 4 0 7 4 7 9 0 15 -36 12 -50 -5z"/>
<path d="M5052 3587 c-26 -31 5 -72 43 -56 19 7 19 8 -2 8 -12 1 -25 6 -29 13
-5 8 0 9 14 6 25 -7 35 3 26 26 -7 19 -37 21 -52 3z m38 -7 c0 -5 -4 -10 -10
-10 -5 0 -10 5 -10 10 0 6 5 10 10 10 6 0 10 -4 10 -10z"/>
<path d="M5137 3593 c-13 -12 -7 -33 8 -33 8 0 15 -5 15 -11 0 -6 -7 -8 -16
-5 -9 3 -14 1 -12 -5 2 -6 7 -10 11 -10 4 1 14 1 22 1 8 0 15 7 15 15 0 9 -7
18 -15 21 -8 4 -15 10 -15 16 0 5 5 6 10 3 6 -3 10 -1 10 4 0 12 -23 15 -33 4z"/>
<path d="M4103 3448 c1 -7 -8 -14 -20 -16 -13 -2 -24 -8 -24 -13 -1 -5 -2 -15
-3 -21 -3 -21 15 -38 39 -38 18 0 24 6 27 33 4 40 -1 67 -13 67 -5 0 -8 -6 -6
-12z m-1 -54 c-5 -26 -10 -30 -23 -17 -14 14 -3 46 14 40 6 -2 10 -13 9 -23z"/>
<path d="M4204 3442 c-6 -10 -15 -33 -19 -52 -7 -34 -7 -35 12 -18 17 16 21
16 40 3 31 -21 34 -7 11 43 -23 47 -28 50 -44 24z m22 -39 c-10 -10 -19 5 -10
18 6 11 8 11 12 0 2 -7 1 -15 -2 -18z"/>
<path d="M4340 3447 c0 -12 -8 -17 -30 -17 -27 0 -30 -3 -30 -29 0 -17 5 -33
12 -37 7 -5 9 -2 5 8 -7 20 16 53 31 44 7 -4 12 -16 12 -26 0 -20 17 -36 27
-26 3 3 0 13 -8 22 -15 19 -16 24 -1 33 7 4 5 13 -4 25 -12 17 -14 18 -14 3z"/>
<path d="M3889 3428 c-13 -46 3 -71 42 -65 18 3 24 11 25 35 2 30 -1 32 -32
32 -19 0 -34 -1 -35 -2z m46 -18 c10 -16 -16 -43 -28 -31 -11 11 -2 41 12 41
5 0 13 -5 16 -10z"/>
<path d="M3972 3396 c-2 -42 15 -49 20 -8 4 33 22 32 26 -3 2 -14 8 -25 13
-25 6 0 8 15 6 33 -3 27 -8 32 -33 35 -29 3 -31 1 -32 -32z"/>
<path d="M4385 3420 c-3 -5 3 -15 15 -22 23 -15 27 -30 5 -22 -8 4 -15 1 -15
-5 0 -15 37 -14 46 1 4 6 0 16 -9 23 -22 16 -21 22 1 28 11 3 7 5 -10 6 -15 0
-30 -3 -33 -9z"/>
<path d="M1570 2940 c-25 -25 -15 -51 28 -75 l27 -14 -32 6 c-25 4 -33 2 -33
-10 0 -33 50 -49 88 -29 25 15 30 59 7 68 -8 4 -15 10 -15 16 0 5 4 7 9 3 22
-13 23 19 1 37 -29 23 -55 23 -80 -2z m55 -30 c3 -5 1 -10 -4 -10 -6 0 -11 5
-11 10 0 6 2 10 4 10 3 0 8 -4 11 -10z"/>
<path d="M1723 2950 c-68 -28 -43 -140 32 -140 40 0 75 32 75 69 0 54 -57 92
-107 71z m61 -55 c7 -20 -18 -49 -38 -42 -19 7 -22 53 -3 60 17 6 34 -2 41
-18z"/>
<path d="M1929 2947 c-1 -7 -2 -30 -3 -52 -1 -28 -5 -40 -16 -40 -11 0 -16 13
-18 48 -3 42 -6 47 -27 47 -24 0 -24 -2 -20 -57 5 -68 23 -87 74 -79 43 7 51
19 51 82 0 43 -3 53 -20 57 -11 3 -20 0 -21 -6z"/>
<path d="M1990 2952 c-18 -6 -10 -32 10 -32 18 0 20 -7 20 -55 0 -47 3 -55 19
-55 23 0 30 15 26 65 -2 30 2 39 17 43 10 2 18 12 16 20 -2 11 -16 16 -51 16
-26 1 -52 0 -57 -2z"/>
<path d="M2448 2947 c-14 -11 -58 -109 -58 -128 0 -12 37 -11 45 1 3 6 17 10
30 10 13 0 27 -4 30 -10 3 -5 15 -10 27 -10 15 0 18 4 13 18 -4 9 -16 40 -26
69 -21 55 -38 69 -61 50z m22 -62 c0 -8 -4 -15 -10 -15 -5 0 -7 7 -4 15 4 8 8
15 10 15 2 0 4 -7 4 -15z"/>
<path d="M2555 2950 c-2 -3 -4 -36 -4 -73 0 -60 2 -67 20 -67 10 0 20 7 20 15
1 8 2 20 3 27 0 7 10 15 21 18 30 8 30 30 0 30 -14 0 -25 5 -25 10 0 6 14 10
30 10 32 0 44 29 13 31 -10 0 -31 2 -46 3 -16 1 -30 -1 -32 -4z"/>
<path d="M2800 2885 c0 -59 3 -75 15 -75 21 0 31 28 29 84 -1 41 -5 51 -23 57
-20 8 -21 6 -21 -66z"/>
<path d="M2903 2949 c-29 -10 -41 -36 -38 -77 5 -56 64 -80 113 -46 33 23 29
48 -5 39 -50 -13 -58 -11 -61 16 -3 27 21 48 33 29 8 -13 55 -13 55 -1 0 11
-28 41 -38 42 -4 0 -14 2 -22 3 -8 2 -25 0 -37 -5z"/>
<path d="M3544 2950 c-44 -17 -40 -61 7 -80 16 -7 26 -17 23 -22 -4 -6 -9 -6
-14 2 -5 7 -16 9 -29 5 -21 -6 -22 -8 -5 -26 21 -23 52 -24 81 -4 28 19 20 51
-18 71 -37 19 -37 25 1 18 24 -5 30 -3 30 10 0 12 -41 40 -53 35 -1 0 -11 -4
-23 -9z"/>
<path d="M3719 2956 c-2 -3 -9 -43 -11 -58 -3 -24 -15 -9 -20 22 -2 18 -10 26
-27 28 -21 3 -23 1 -17 -20 3 -12 11 -44 17 -70 9 -42 13 -47 35 -46 19 2 27
10 31 30 7 37 19 36 26 -2 5 -24 11 -29 31 -28 21 2 27 10 40 65 20 77 20 73
-3 73 -20 0 -31 -18 -31 -53 0 -18 -2 -19 -10 -7 -5 8 -10 25 -10 36 0 15 -8
23 -25 26 -14 3 -25 5 -26 4z"/>
<path d="M3924 2950 c-23 -8 -19 -24 8 -30 20 -5 23 -12 23 -55 0 -43 3 -50
20 -50 17 0 20 7 20 50 0 43 3 51 22 55 37 8 11 32 -36 33 -23 1 -49 0 -57 -3z"/>
<path d="M4050 2938 c0 -13 8 -18 25 -18 l26 0 -30 -43 c-16 -24 -26 -48 -22
-55 3 -6 27 -10 51 -9 34 2 46 6 48 20 3 13 -3 17 -23 17 l-27 0 26 34 c41 55
36 71 -24 71 -41 0 -50 -3 -50 -17z"/>
<path d="M4198 2953 c7 -3 16 -2 19 1 4 3 -2 6 -13 5 -11 0 -14 -3 -6 -6z"/>
<path d="M4257 2939 c4 -13 8 -18 11 -10 2 7 -1 18 -6 23 -8 8 -9 4 -5 -13z"/>
<path d="M4283 2945 c-3 -9 -3 -19 1 -22 3 -4 6 1 6 10 0 8 6 18 13 20 9 4 9
6 -1 6 -7 1 -15 -6 -19 -14z"/>
<path d="M4438 2952 c-15 -3 -17 -14 -15 -70 l2 -67 40 -1 c32 -2 41 2 42 16
1 12 -5 17 -20 16 -20 -1 -22 4 -24 52 -2 60 -1 60 -25 54z"/>
<path d="M4698 2952 c-10 -2 -18 -9 -19 -15 -6 -119 -3 -134 25 -124 10 4 16
18 16 38 l0 32 23 -34 c13 -19 31 -34 42 -34 18 0 20 8 23 68 3 65 2 67 -22
67 -22 0 -24 -3 -19 -32 5 -34 2 -33 -33 12 -11 15 -27 24 -36 22z"/>
<path d="M4869 2952 l-35 -3 -2 -69 -2 -69 37 3 c21 2 43 4 50 5 41 4 59 84
26 113 -25 21 -34 24 -74 20z m41 -53 c15 -27 6 -49 -20 -49 -15 0 -19 6 -18
28 3 48 19 57 38 21z"/>
<path d="M2119 2948 c-4 -9 -5 -115 -1 -125 2 -7 13 -13 23 -13 14 0 19 7 19
30 0 24 4 30 21 30 13 0 20 -6 18 -17 -3 -34 1 -43 20 -43 23 0 27 11 26 80 0
49 -3 55 -23 58 -20 3 -28 -10 -23 -40 0 -5 -8 -8 -19 -8 -15 0 -20 7 -20 25
0 18 -5 25 -20 25 -11 0 -20 -1 -21 -2z"/>
<path d="M2665 2883 c0 -62 2 -68 23 -71 17 -3 22 2 22 20 l0 22 16 -22 c8
-12 24 -22 35 -22 22 0 23 4 8 31 -6 13 -7 25 -1 32 16 21 19 52 6 65 -7 7
-35 12 -62 12 l-48 0 1 -67z m69 28 c3 -5 -1 -11 -9 -15 -9 -3 -15 0 -15 9 0
16 16 20 24 6z"/>
<path d="M3055 2938 c-2 -7 -13 -38 -25 -68 -11 -30 -20 -56 -20 -57 0 -10 44
0 57 12 14 14 18 14 39 0 13 -8 31 -15 39 -15 17 0 15 13 -8 70 -13 31 -14 36
-16 55 -1 19 -60 21 -66 3z m40 -58 c3 -5 1 -10 -4 -10 -6 0 -11 5 -11 10 0 6
2 10 4 10 3 0 8 -4 11 -10z"/>
<path d="M3858 2934 c-2 -9 -1 -41 0 -71 3 -43 7 -53 20 -51 20 4 28 36 23 95
-2 34 -7 43 -21 43 -10 0 -20 -7 -22 -16z"/>
<path d="M4390 2930 c6 -11 13 -20 16 -20 2 0 0 9 -6 20 -6 11 -13 20 -16 20
-2 0 0 -9 6 -20z"/>
<path d="M4541 2888 c-26 -76 -26 -77 -1 -75 11 1 20 4 20 8 0 14 49 16 54 3
6 -15 32 -19 39 -6 3 4 -5 35 -16 70 -19 56 -24 62 -48 62 -24 0 -29 -6 -48
-62z m59 -21 c0 -5 -4 -5 -10 -2 -5 3 -10 14 -10 23 0 15 2 15 10 2 5 -8 10
-19 10 -23z"/>
<path d="M4211 2914 c0 -11 3 -14 6 -6 3 7 2 16 -1 19 -3 4 -6 -2 -5 -13z"/>
<path d="M4325 2919 c-4 -6 0 -9 11 -7 12 2 18 -2 16 -10 -1 -8 2 -11 8 -7 8
5 7 11 -1 21 -14 17 -25 18 -34 3z"/>
<path d="M4171 2904 c0 -11 3 -14 6 -6 3 7 2 16 -1 19 -3 4 -6 -2 -5 -13z"/>
<path d="M3267 2886 c-7 -19 4 -22 54 -18 25 3 39 9 39 18 0 20 -86 19 -93 0z"/>
<path d="M4252 2880 c0 -14 2 -19 5 -12 2 6 2 18 0 25 -3 6 -5 1 -5 -13z"/>
<path d="M4280 2881 c0 -6 4 -13 10 -16 6 -3 7 1 4 9 -7 18 -14 21 -14 7z"/>
<path d="M4381 2881 c-12 -8 -13 -15 -3 -35 8 -19 8 -26 -1 -30 -7 -2 -2 -5
11 -5 22 -1 22 0 6 24 -13 20 -14 28 -4 40 14 17 11 19 -9 6z"/>
<path d="M4170 2845 c0 -19 4 -35 8 -35 4 0 6 16 4 35 -2 19 -6 35 -8 35 -2 0
-4 -16 -4 -35z"/>
<path d="M4215 2870 c-3 -6 1 -7 9 -4 18 7 21 14 7 14 -6 0 -13 -4 -16 -10z"/>
<path d="M4322 2860 c3 -8 1 -23 -4 -32 -5 -12 -5 -18 2 -18 5 0 10 6 10 14 0
8 5 16 11 18 7 2 4 10 -7 18 -15 13 -17 13 -12 0z"/>
<path d="M4210 2846 c0 -2 14 -6 30 -8 17 -3 30 -1 30 4 0 4 -13 8 -30 8 -16
0 -30 -2 -30 -4z"/>
<path d="M4208 2813 c7 -3 16 -2 19 1 4 3 -2 6 -13 5 -11 0 -14 -3 -6 -6z"/>
<path d="M757 2693 c-13 -12 -7 -23 13 -23 13 0 18 5 14 15 -7 16 -17 19 -27
8z"/>
<path d="M3009 2697 c0 -1 -1 -33 -3 -70 -2 -68 6 -99 21 -83 12 12 11 100 -1
109 -8 6 -7 10 2 14 16 6 15 20 -3 27 -8 3 -15 4 -16 3z"/>
<path d="M3207 2693 c-3 -5 -4 -23 -2 -40 1 -18 -2 -33 -6 -33 -5 0 -6 -7 -2
-16 3 -9 6 -25 7 -37 1 -11 7 -22 14 -25 10 -3 12 13 11 73 -3 70 -10 98 -22
78z"/>
<path d="M3911 2684 c0 -11 3 -14 6 -6 3 7 2 16 -1 19 -3 4 -6 -2 -5 -13z"/>
<path d="M4407 2693 c-3 -3 -3 -11 0 -18 5 -14 33 -9 33 5 0 10 -26 20 -33 13z"/>
<path d="M5416 2685 c-3 -8 -1 -15 4 -15 6 0 10 7 10 15 0 8 -2 15 -4 15 -2 0
-6 -7 -10 -15z"/>
<path d="M631 2676 c-5 -6 -8 -38 -7 -71 l1 -60 44 0 c51 0 74 22 54 53 -7 12
-8 24 -1 36 6 11 6 21 -2 30 -14 18 -78 25 -89 12z m59 -30 c0 -18 -10 -25
-26 -19 -21 8 -17 29 6 30 11 1 20 -4 20 -11z m6 -57 c8 -14 -14 -29 -33 -22
-7 3 -13 11 -13 19 0 17 36 19 46 3z"/>
<path d="M810 2616 c0 -46 4 -76 10 -76 16 0 23 25 23 88 1 46 -2 58 -16 60
-15 3 -17 -6 -17 -72z"/>
<path d="M1440 2615 c0 -60 3 -75 15 -75 12 0 15 15 15 75 0 60 -3 75 -15 75
-12 0 -15 -15 -15 -75z"/>
<path d="M2390 2615 c0 -60 3 -75 15 -75 15 0 19 15 15 58 -1 21 24 41 36 29
7 -6 12 -34 13 -65 2 -41 26 -18 28 26 2 46 -23 74 -58 65 -14 -4 -19 0 -19
16 0 12 -6 21 -15 21 -12 0 -15 -15 -15 -75z"/>
<path d="M2614 2677 c-62 -32 -58 -116 7 -132 32 -8 79 10 79 30 0 17 -25 21
-35 5 -10 -17 -44 -11 -55 9 -14 27 -13 37 6 55 13 14 19 14 49 1 38 -15 54
-6 27 17 -24 21 -56 27 -78 15z"/>
<path d="M2732 2618 c2 -56 6 -73 18 -73 10 0 14 11 13 38 0 20 4 38 8 39 29
5 34 0 39 -36 7 -56 30 -60 30 -4 0 56 -11 71 -50 70 -27 -1 -31 2 -27 19 4
14 0 19 -14 19 -18 0 -20 -6 -17 -72z"/>
<path d="M3458 2679 c-8 -5 -13 -31 -13 -72 l0 -63 33 -2 c19 -2 42 0 52 3 20
6 33 42 18 51 -5 3 -7 18 -4 32 3 15 3 32 -2 38 -9 14 -68 23 -84 13z m52 -29
c13 -9 13 -11 1 -19 -19 -12 -41 -3 -34 15 6 16 13 17 33 4z m10 -64 c0 -15
-24 -28 -34 -19 -13 14 -5 33 14 33 11 0 20 -6 20 -14z"/>
<path d="M3579 2653 c-6 -61 1 -113 15 -113 9 0 13 21 13 75 1 55 -3 75 -12
75 -8 0 -14 -15 -16 -37z"/>
<path d="M4130 2617 c0 -59 3 -74 15 -74 17 0 17 0 19 39 1 31 19 53 35 44 6
-4 11 -25 11 -47 0 -28 4 -39 15 -39 22 0 20 82 -2 103 -21 18 -33 19 -51 4
-11 -9 -13 -6 -10 13 2 17 -2 26 -14 28 -16 3 -18 -5 -18 -71z"/>
<path d="M4655 2676 c-19 -15 -19 -17 8 -20 8 -1 13 -22 15 -58 2 -43 7 -58
17 -58 12 0 15 14 15 61 0 33 4 58 9 55 5 -3 14 1 21 9 10 13 8 15 -13 15 -14
0 -31 2 -39 5 -7 3 -22 -1 -33 -9z"/>
<path d="M5020 2614 c0 -56 3 -75 13 -72 6 3 13 23 15 46 3 42 8 47 35 36 10
-3 14 -15 11 -32 -4 -31 9 -58 24 -48 12 7 7 85 -7 99 -5 5 -21 10 -35 10 -19
0 -26 5 -26 18 0 11 -7 19 -15 19 -12 0 -15 -15 -15 -76z"/>
<path d="M5442 2665 c0 -16 2 -22 5 -12 2 9 2 23 0 30 -3 6 -5 -1 -5 -18z"/>
<path d="M1010 2660 c-8 -14 -8 -26 0 -40 6 -11 8 -25 5 -30 -3 -5 -1 -19 5
-30 12 -23 50 -27 50 -5 0 8 -6 15 -13 15 -19 0 -15 48 3 61 13 8 12 11 -3 20
-9 6 -15 14 -12 20 4 5 -1 9 -9 9 -8 0 -20 -9 -26 -20z"/>
<path d="M1552 2613 c2 -42 8 -68 16 -71 8 -2 12 8 12 30 l0 33 21 -32 c12
-18 27 -33 35 -33 17 0 18 12 2 28 -10 10 -10 17 0 32 17 28 15 67 -4 74 -9 3
-31 6 -50 6 l-35 0 3 -67z m66 24 c2 -12 -3 -17 -17 -17 -14 0 -21 6 -21 19 0
24 34 22 38 -2z"/>
<path d="M898 2652 c-30 -6 -40 -70 -16 -99 5 -7 30 -12 54 -11 l44 1 0 52 c0
52 0 53 -32 57 -18 2 -41 2 -50 0z m40 -34 c22 -22 14 -48 -13 -48 -20 0 -25
5 -25 23 0 36 16 47 38 25z"/>
<path d="M1123 2652 c-20 -3 -32 -22 -39 -60 -4 -20 33 -52 59 -52 31 0 50 19
36 37 -9 10 -8 13 3 13 23 0 10 46 -15 57 -12 5 -32 7 -44 5z m32 -32 c3 -5
-3 -10 -15 -10 -12 0 -18 5 -15 10 3 6 10 10 15 10 5 0 12 -4 15 -10z m5 -41
c0 -5 -9 -9 -20 -9 -11 0 -20 4 -20 8 0 4 9 8 20 9 11 1 20 -2 20 -8z"/>
<path d="M1223 2647 c-4 -6 -7 -32 -7 -59 -1 -38 2 -48 14 -46 9 2 17 19 20
43 3 24 10 39 18 38 6 -2 12 3 12 11 0 17 -48 28 -57 13z"/>
<path d="M1323 2651 c-22 -14 -33 -50 -23 -75 5 -14 13 -27 17 -27 5 -1 27 -3
51 -4 33 -3 42 0 43 13 0 10 1 34 2 54 2 28 -2 38 -15 42 -10 2 -18 0 -18 -6
0 -5 -6 -6 -12 -1 -18 10 -33 12 -45 4z m55 -59 c-2 -9 -11 -18 -21 -20 -19
-4 -32 20 -23 43 8 22 48 0 44 -23z"/>
<path d="M1703 2647 c-13 -5 -24 -17 -25 -26 0 -9 -2 -23 -3 -31 -4 -43 58
-65 91 -33 20 20 4 29 -25 14 -11 -6 -22 -7 -25 -2 -9 14 5 21 41 21 18 0 33
2 33 5 0 9 -24 55 -29 56 -3 0 -13 2 -21 3 -8 2 -25 -1 -37 -7z m42 -27 c3 -5
-3 -10 -14 -10 -12 0 -21 5 -21 10 0 6 6 10 14 10 8 0 18 -4 21 -10z"/>
<path d="M1819 2641 c-25 -20 -19 -38 17 -51 13 -5 24 -14 24 -20 0 -6 -9 -5
-25 2 -32 14 -46 1 -20 -18 32 -24 69 -14 73 18 3 22 -2 29 -22 34 -14 3 -26
10 -26 15 0 5 12 6 26 3 19 -5 25 -3 22 6 -8 24 -45 30 -69 11z"/>
<path d="M1943 2649 c-37 -14 -42 -70 -8 -95 24 -18 59 -18 74 0 16 19 -3 30
-27 17 -19 -10 -32 -6 -32 10 0 5 16 7 35 5 30 -2 35 1 35 20 0 35 -39 57 -77
43z m42 -29 c4 -6 -5 -10 -20 -10 -15 0 -24 4 -20 10 3 6 12 10 20 10 8 0 17
-4 20 -10z"/>
<path d="M2067 2645 c-14 -7 -23 -22 -25 -41 -4 -44 19 -64 71 -61 l42 3 0 51
c0 51 0 51 -33 55 -18 2 -43 -1 -55 -7z m52 -28 c15 -19 -10 -53 -33 -44 -19
7 -22 43 -3 50 20 9 24 8 36 -6z"/>
<path d="M2185 2636 c-8 -42 0 -91 15 -91 10 0 14 10 14 34 -1 25 3 35 17 38
30 8 22 30 -11 35 -25 4 -31 1 -35 -16z"/>
<path d="M2300 2652 c-39 -12 -53 -68 -24 -96 21 -22 57 -20 79 4 18 19 17 20
-1 20 -11 0 -25 -5 -30 -10 -16 -16 -37 14 -29 40 6 20 35 29 35 11 0 -6 9 -9
20 -8 23 1 26 10 8 24 -19 15 -41 21 -58 15z"/>
<path d="M2899 2652 c-21 -6 -39 -33 -39 -58 0 -36 27 -55 73 -52 l42 3 1 52
c1 51 1 51 -31 55 -18 2 -39 2 -46 0z m39 -39 c12 -24 4 -43 -18 -43 -22 0
-34 28 -19 46 15 19 26 18 37 -3z"/>
<path d="M3066 2641 c-9 -37 -1 -96 14 -96 10 0 15 11 15 35 0 25 5 36 18 38
28 6 19 29 -13 34 -21 3 -31 0 -34 -11z"/>
<path d="M3260 2598 c0 -45 3 -58 15 -58 11 0 15 11 15 40 0 27 5 43 15 47 21
7 29 -2 31 -35 3 -50 4 -54 16 -50 17 6 19 73 4 94 -8 10 -28 17 -54 17 l-42
2 0 -57z"/>
<path d="M3675 2652 c-25 -5 -45 -30 -45 -56 0 -31 13 -45 47 -52 23 -5 35 -1
51 16 38 41 3 104 -53 92z m33 -55 c3 -21 -1 -27 -17 -27 -25 0 -34 14 -26 41
10 29 39 20 43 -14z"/>
<path d="M3789 2646 c-48 -23 -28 -106 26 -106 12 0 30 9 41 21 18 20 18 20
-21 17 -37 -3 -40 -1 -40 22 0 25 5 27 53 16 24 -5 29 6 10 21 -24 18 -45 21
-69 9z"/>
<path d="M3911 2644 c0 -11 3 -14 6 -6 3 7 2 16 -1 19 -3 4 -6 -2 -5 -13z"/>
<path d="M3940 2637 c-15 -13 -25 -33 -26 -49 0 -15 2 -25 5 -23 2 3 10 0 18
-6 9 -9 13 -8 13 0 0 6 -4 11 -9 11 -5 0 -11 6 -14 14 -7 16 28 66 46 66 8 0
7 -4 -1 -12 -7 -7 -12 -16 -12 -22 0 -5 6 -1 14 9 14 19 13 35 -2 35 -4 0 -18
-11 -32 -23z"/>
<path d="M4020 2645 c-9 -10 -9 -15 -1 -15 6 0 11 4 11 9 0 5 8 12 18 14 14 4
14 5 1 6 -9 0 -22 -6 -29 -14z"/>
<path d="M4280 2643 c-25 -18 -26 -64 -2 -86 11 -10 32 -15 57 -14 l40 3 0 49
c0 50 0 50 -38 56 -24 4 -44 1 -57 -8z m57 -24 c16 -16 4 -49 -18 -49 -25 0
-35 26 -19 45 15 18 22 19 37 4z"/>
<path d="M4414 2652 c-8 -6 -10 -41 -5 -99 1 -7 7 -13 14 -13 9 0 13 16 12 54
0 58 -4 69 -21 58z"/>
<path d="M4494 2652 c-30 -3 -31 -4 -30 -52 0 -26 5 -52 9 -56 12 -12 26 16
21 41 -4 25 19 51 36 40 5 -3 10 -24 10 -46 0 -28 4 -39 15 -39 11 0 15 11 15
43 0 62 -15 76 -76 69z"/>
<path d="M4793 2649 c-28 -10 -38 -55 -18 -85 22 -35 83 -30 88 7 2 8 6 19 9
25 9 14 -16 50 -40 56 -10 3 -27 2 -39 -3z m42 -29 c4 -6 -5 -10 -20 -10 -15
0 -24 4 -20 10 3 6 12 10 20 10 8 0 17 -4 20 -10z m10 -41 c-8 -11 -42 -12
-49 -1 -3 5 8 9 25 10 16 0 27 -4 24 -9z"/>
<path d="M4911 2643 c-25 -17 -28 -65 -5 -87 20 -21 70 -21 78 0 11 28 7 35
-13 24 -33 -17 -51 -12 -51 14 0 30 16 42 35 26 9 -7 20 -8 30 -3 13 8 14 11
3 20 -23 18 -56 21 -77 6z"/>
<path d="M5153 2647 c-3 -5 -2 -11 1 -14 3 -4 6 -1 6 7 0 10 3 10 15 0 8 -7
12 -17 8 -23 -3 -6 -1 -7 6 -3 6 4 9 12 6 17 -4 5 4 13 17 18 19 8 17 9 -15 8
-21 -1 -41 -6 -44 -10z"/>
<path d="M5312 2653 c-7 -2 -17 -14 -23 -26 -9 -19 -8 -20 3 -6 7 8 22 21 33
27 20 11 11 15 -13 5z"/>
<path d="M5515 2652 c-44 -8 -60 -66 -27 -95 39 -35 106 -6 97 41 -2 9 -4 22
-4 28 -1 15 -42 31 -66 26z m34 -41 c7 -13 7 -23 -2 -35 -18 -25 -52 1 -43 32
9 27 32 29 45 3z"/>
<path d="M5619 2639 c-40 -40 -7 -108 46 -95 30 8 34 -9 6 -24 -13 -7 -22 -7
-26 0 -9 15 -35 12 -35 -5 0 -18 41 -29 74 -21 27 7 35 33 33 106 -2 44 -3 45
-41 51 -30 5 -43 2 -57 -12z m60 -23 c17 -20 2 -48 -23 -44 -22 3 -28 25 -13
46 12 16 22 15 36 -2z"/>
<path d="M5828 2649 c-9 -5 -20 -24 -23 -41 l-8 -32 -14 37 c-10 24 -22 37
-34 37 -18 0 -18 -3 5 -53 21 -48 22 -56 9 -80 -13 -25 -12 -27 6 -27 12 0 23
9 27 23 4 12 18 46 31 75 27 58 27 76 1 61z"/>
<path d="M751 2595 c-1 -43 2 -55 14 -55 9 0 15 10 16 23 0 12 1 37 2 55 2 23
-2 32 -14 32 -13 0 -17 -12 -18 -55z"/>
<path d="M4094 2637 c5 -15 2 -17 -15 -12 -15 5 -19 4 -15 -4 8 -12 46 -15 46
-3 0 4 -5 14 -11 22 -9 13 -10 12 -5 -3z"/>
<path d="M5240 2641 c0 -6 4 -13 10 -16 6 -3 7 1 4 9 -7 18 -14 21 -14 7z"/>
<path d="M5380 2635 c0 -5 5 -17 10 -25 5 -8 10 -10 10 -5 0 6 -5 17 -10 25
-5 8 -10 11 -10 5z"/>
<path d="M5216 2615 c4 -8 8 -15 10 -15 2 0 4 7 4 15 0 8 -4 15 -10 15 -5 0
-7 -7 -4 -15z"/>
<path d="M5315 2619 c-4 -6 -5 -12 -2 -15 2 -3 7 2 10 11 7 17 1 20 -8 4z"/>
<path d="M5352 2616 c7 -8 15 -12 17 -11 5 6 -10 25 -20 25 -5 0 -4 -6 3 -14z"/>
<path d="M5442 2610 c0 -14 2 -19 5 -12 2 6 2 18 0 25 -3 6 -5 1 -5 -13z"/>
<path d="M4001 2604 c0 -11 3 -14 6 -6 3 7 2 16 -1 19 -3 4 -6 -2 -5 -13z"/>
<path d="M5152 2600 c0 -14 2 -19 5 -12 2 6 2 18 0 25 -3 6 -5 1 -5 -13z"/>
<path d="M3940 2601 c0 -6 4 -13 10 -16 6 -3 7 1 4 9 -7 18 -14 21 -14 7z"/>
<path d="M5255 2601 c-3 -5 -2 -12 3 -15 5 -3 9 1 9 9 0 17 -3 19 -12 6z"/>
<path d="M4031 2584 c0 -11 3 -14 6 -6 3 7 2 16 -1 19 -3 4 -6 -2 -5 -13z"/>
<path d="M5281 2589 c-1 -9 9 -24 22 -35 22 -19 22 -19 6 1 -9 11 -19 27 -22
35 -5 13 -6 13 -6 -1z"/>
<path d="M5310 2581 c0 -6 4 -13 10 -16 6 -3 7 1 4 9 -7 18 -14 21 -14 7z"/>
<path d="M5349 2573 c-13 -16 -12 -17 4 -4 16 13 21 21 13 21 -2 0 -10 -8 -17
-17z"/>
<path d="M5390 2581 c0 -6 -15 -18 -32 -26 -18 -8 -26 -14 -17 -15 22 0 66 36
57 46 -5 4 -8 2 -8 -5z"/>
<path d="M5413 2569 c-2 -23 3 -25 10 -4 4 8 3 16 -1 19 -4 3 -9 -4 -9 -15z"/>
<path d="M4006 2567 c3 -10 9 -15 12 -12 3 3 0 11 -7 18 -10 9 -11 8 -5 -6z"/>
<path d="M4060 2570 c-8 -5 -10 -10 -5 -10 6 0 17 5 25 10 8 5 11 10 5 10 -5
0 -17 -5 -25 -10z"/>
<path d="M4100 2571 c0 -6 -10 -16 -22 -21 -16 -6 -18 -9 -7 -9 19 -1 45 26
35 36 -3 3 -6 1 -6 -6z"/>
<path d="M5437 2561 c-4 -17 -3 -21 5 -13 5 5 8 16 6 23 -3 8 -7 3 -11 -10z"/>
<path d="M5150 2558 c0 -12 7 -18 23 -17 15 0 17 2 7 6 -8 3 -18 11 -22 17 -5
7 -8 4 -8 -6z"/>
<path d="M3898 2543 c7 -3 16 -2 19 1 4 3 -2 6 -13 5 -11 0 -14 -3 -6 -6z"/>
<path d="M3968 2543 c6 -2 18 -2 25 0 6 3 1 5 -13 5 -14 0 -19 -2 -12 -5z"/>
</g>
</svg>
